<svg version="1.1" width="318" height="78" viewBox="-15 -15 318 78" xmlns="http://www.w3.org/2000/svg">
  <rect x="-15" y="-15" width="100%" height="100%" fill="#00182A" />
  <g stroke-width="10" stroke-linecap="round" stroke-linejoin="round" fill="#00182A">

    <g stroke="#D9D8AA">
      <!-- M --> <path d="M0,0 m0,48 l0,-48 l12,24 l12,-24 l0,48"/>
      <!-- I --> <path d="M44,0 l24,0 m-12,0 l0,48 m-12,0 l24,0"/>
      <!-- N --> <path d="M88,0 m0,48 l0,-48 l24,48 l0,-48"/>
      <!-- I --> <path d="M132,0 l24,0 m-12,0 l0,48 m-12,0 l24,0"/>
    </g>

    <g stroke="#B3DAF9">
      <!-- M --> <path d="M176,0 m0,48 l0,-48 l12,24 l12,-24 l0,48"/>
      <!-- A --> <path d="M220,0 m0,48 l0,-36 a12,12,0,0,1,24,0 l0,36 m-24,-24 l24,0"/>
      <!-- X --> <path d="M264,0 l24,48 m-24,0 l24,-48"/>
    </g>

  </g>
</svg>
