<svg version="1.1" width="120" height="160" viewBox="-15 -15 120 160" xmlns="http://www.w3.org/2000/svg">
  <rect x="-15" y="-15" width="100%" height="100%" fill="#081823" />
  <g stroke-width="0" stroke="#E0D699" fill="#E0D699">
    <!-- ⣾⣄⣠⣷ -->
    <!-- ⣿⠙⠋⣿ -->
    <!-- ⢿  ⡿ -->
    <circle cx="20" cy="10" r="4"/>
    <circle cx="70" cy="10" r="4"/>

    <circle cx="10" cy="20" r="4"/>
    <circle cx="20" cy="20" r="4"/>
    <circle cx="70" cy="20" r="4"/>
    <circle cx="80" cy="20" r="4"/>

    <circle cx="10" cy="30" r="4"/>
    <circle cx="20" cy="30" r="4"/>
    <circle cx="30" cy="30" r="4"/>
    <circle cx="60" cy="30" r="4"/>
    <circle cx="70" cy="30" r="4"/>
    <circle cx="80" cy="30" r="4"/>

    <circle cx="10" cy="40" r="4"/>
    <circle cx="20" cy="40" r="4"/>
    <circle cx="30" cy="40" r="4"/>
    <circle cx="40" cy="40" r="4"/>
    <circle cx="50" cy="40" r="4"/>
    <circle cx="60" cy="40" r="4"/>
    <circle cx="70" cy="40" r="4"/>
    <circle cx="80" cy="40" r="4"/>

    <circle cx="10" cy="50" r="4"/>
    <circle cx="20" cy="50" r="4"/>
    <circle cx="30" cy="50" r="4"/>
    <circle cx="40" cy="50" r="4"/>
    <circle cx="50" cy="50" r="4"/>
    <circle cx="60" cy="50" r="4"/>
    <circle cx="70" cy="50" r="4"/>
    <circle cx="80" cy="50" r="4"/>

    <circle cx="10" cy="60" r="4"/>
    <circle cx="20" cy="60" r="4"/>
    <circle cx="40" cy="60" r="4"/>
    <circle cx="50" cy="60" r="4"/>
    <circle cx="70" cy="60" r="4"/>
    <circle cx="80" cy="60" r="4"/>

    <circle cx="10" cy="70" r="4"/>
    <circle cx="20" cy="70" r="4"/>
    <circle cx="70" cy="70" r="4"/>
    <circle cx="80" cy="70" r="4"/>

    <circle cx="10" cy="80" r="4"/>
    <circle cx="20" cy="80" r="4"/>
    <circle cx="70" cy="80" r="4"/>
    <circle cx="80" cy="80" r="4"/>

    <circle cx="10" cy="90" r="4"/>
    <circle cx="20" cy="90" r="4"/>
    <circle cx="70" cy="90" r="4"/>
    <circle cx="80" cy="90" r="4"/>

    <circle cx="10" cy="100" r="4"/>
    <circle cx="20" cy="100" r="4"/>
    <circle cx="70" cy="100" r="4"/>
    <circle cx="80" cy="100" r="4"/>

    <circle cx="10" cy="110" r="4"/>
    <circle cx="20" cy="110" r="4"/>
    <circle cx="70" cy="110" r="4"/>
    <circle cx="80" cy="110" r="4"/>

    <circle cx="20" cy="120" r="4"/>
    <circle cx="70" cy="120" r="4"/>
  </g>
</svg>
