<svg version="1.1" width="920" height="160" viewBox="-15 -15 920 160"  xmlns="http://www.w3.org/2000/svg">
  <rect x="-15" y="-15" width="920" height="160" fill="#081823" />
  <g stroke-width="0" stroke="#A1DDFF" fill="#A1DDFF">
    <!-- M -->
    <circle cx="20" cy="10" r="4"/>
    <circle cx="70" cy="10" r="4"/>

    <circle cx="10" cy="20" r="4"/>
    <circle cx="20" cy="20" r="4"/>
    <circle cx="70" cy="20" r="4"/>
    <circle cx="80" cy="20" r="4"/>

    <circle cx="10" cy="30" r="4"/>
    <circle cx="20" cy="30" r="4"/>
    <circle cx="30" cy="30" r="4"/>
    <circle cx="60" cy="30" r="4"/>
    <circle cx="70" cy="30" r="4"/>
    <circle cx="80" cy="30" r="4"/>

    <circle cx="10" cy="40" r="4"/>
    <circle cx="20" cy="40" r="4"/>
    <circle cx="30" cy="40" r="4"/>
    <circle cx="40" cy="40" r="4"/>
    <circle cx="50" cy="40" r="4"/>
    <circle cx="60" cy="40" r="4"/>
    <circle cx="70" cy="40" r="4"/>
    <circle cx="80" cy="40" r="4"/>

    <circle cx="10" cy="50" r="4"/>
    <circle cx="20" cy="50" r="4"/>
    <circle cx="30" cy="50" r="4"/>
    <circle cx="40" cy="50" r="4"/>
    <circle cx="50" cy="50" r="4"/>
    <circle cx="60" cy="50" r="4"/>
    <circle cx="70" cy="50" r="4"/>
    <circle cx="80" cy="50" r="4"/>

    <circle cx="10" cy="60" r="4"/>
    <circle cx="20" cy="60" r="4"/>
    <circle cx="40" cy="60" r="4"/>
    <circle cx="50" cy="60" r="4"/>
    <circle cx="70" cy="60" r="4"/>
    <circle cx="80" cy="60" r="4"/>

    <circle cx="10" cy="70" r="4"/>
    <circle cx="20" cy="70" r="4"/>
    <circle cx="70" cy="70" r="4"/>
    <circle cx="80" cy="70" r="4"/>

    <circle cx="10" cy="80" r="4"/>
    <circle cx="20" cy="80" r="4"/>
    <circle cx="70" cy="80" r="4"/>
    <circle cx="80" cy="80" r="4"/>

    <circle cx="10" cy="90" r="4"/>
    <circle cx="20" cy="90" r="4"/>
    <circle cx="70" cy="90" r="4"/>
    <circle cx="80" cy="90" r="4"/>

    <circle cx="10" cy="100" r="4"/>
    <circle cx="20" cy="100" r="4"/>
    <circle cx="70" cy="100" r="4"/>
    <circle cx="80" cy="100" r="4"/>

    <circle cx="10" cy="110" r="4"/>
    <circle cx="20" cy="110" r="4"/>
    <circle cx="70" cy="110" r="4"/>
    <circle cx="80" cy="110" r="4"/>

    <circle cx="20" cy="120" r="4"/>
    <circle cx="70" cy="120" r="4"/>

    <!-- I -->
    <circle cx="110" cy="10" r="4"/>
    <circle cx="120" cy="10" r="4"/>
    <circle cx="130" cy="10" r="4"/>
    <circle cx="140" cy="10" r="4"/>
    <circle cx="150" cy="10" r="4"/>
    <circle cx="160" cy="10" r="4"/>
    <circle cx="170" cy="10" r="4"/>
    <circle cx="180" cy="10" r="4"/>

    <circle cx="120" cy="20" r="4"/>
    <circle cx="130" cy="20" r="4"/>
    <circle cx="140" cy="20" r="4"/>
    <circle cx="150" cy="20" r="4"/>
    <circle cx="160" cy="20" r="4"/>
    <circle cx="170" cy="20" r="4"/>

    <circle cx="140" cy="30" r="4"/>
    <circle cx="150" cy="30" r="4"/>

    <circle cx="140" cy="40" r="4"/>
    <circle cx="150" cy="40" r="4"/>

    <circle cx="140" cy="50" r="4"/>
    <circle cx="150" cy="50" r="4"/>

    <circle cx="140" cy="60" r="4"/>
    <circle cx="150" cy="60" r="4"/>

    <circle cx="140" cy="70" r="4"/>
    <circle cx="150" cy="70" r="4"/>

    <circle cx="140" cy="80" r="4"/>
    <circle cx="150" cy="80" r="4"/>

    <circle cx="140" cy="90" r="4"/>
    <circle cx="150" cy="90" r="4"/>

    <circle cx="140" cy="100" r="4"/>
    <circle cx="150" cy="100" r="4"/>

    <circle cx="120" cy="110" r="4"/>
    <circle cx="130" cy="110" r="4"/>
    <circle cx="140" cy="110" r="4"/>
    <circle cx="150" cy="110" r="4"/>
    <circle cx="160" cy="110" r="4"/>
    <circle cx="170" cy="110" r="4"/>

    <circle cx="110" cy="120" r="4"/>
    <circle cx="120" cy="120" r="4"/>
    <circle cx="130" cy="120" r="4"/>
    <circle cx="140" cy="120" r="4"/>
    <circle cx="150" cy="120" r="4"/>
    <circle cx="160" cy="120" r="4"/>
    <circle cx="170" cy="120" r="4"/>
    <circle cx="180" cy="120" r="4"/>

    <!-- N -->
    <circle cx="220" cy="10" r="4"/>
    <circle cx="270" cy="10" r="4"/>

    <circle cx="210" cy="20" r="4"/>
    <circle cx="220" cy="20" r="4"/>
    <circle cx="270" cy="20" r="4"/>
    <circle cx="280" cy="20" r="4"/>

    <circle cx="210" cy="30" r="4"/>
    <circle cx="220" cy="30" r="4"/>
    <circle cx="270" cy="30" r="4"/>
    <circle cx="280" cy="30" r="4"/>

    <circle cx="210" cy="40" r="4"/>
    <circle cx="220" cy="40" r="4"/>
    <circle cx="230" cy="40" r="4"/>
    <circle cx="270" cy="40" r="4"/>
    <circle cx="280" cy="40" r="4"/>

    <circle cx="210" cy="50" r="4"/>
    <circle cx="220" cy="50" r="4"/>
    <circle cx="230" cy="50" r="4"/>
    <circle cx="240" cy="50" r="4"/>
    <circle cx="270" cy="50" r="4"/>
    <circle cx="280" cy="50" r="4"/>

    <circle cx="210" cy="60" r="4"/>
    <circle cx="220" cy="60" r="4"/>
    <circle cx="230" cy="60" r="4"/>
    <circle cx="240" cy="60" r="4"/>
    <circle cx="250" cy="60" r="4"/>
    <circle cx="270" cy="60" r="4"/>
    <circle cx="280" cy="60" r="4"/>

    <circle cx="210" cy="70" r="4"/>
    <circle cx="220" cy="70" r="4"/>
    <circle cx="240" cy="70" r="4"/>
    <circle cx="250" cy="70" r="4"/>
    <circle cx="260" cy="70" r="4"/>
    <circle cx="270" cy="70" r="4"/>
    <circle cx="280" cy="70" r="4"/>

    <circle cx="210" cy="80" r="4"/>
    <circle cx="220" cy="80" r="4"/>
    <circle cx="250" cy="80" r="4"/>
    <circle cx="260" cy="80" r="4"/>
    <circle cx="270" cy="80" r="4"/>
    <circle cx="280" cy="80" r="4"/>

    <circle cx="210" cy="90" r="4"/>
    <circle cx="220" cy="90" r="4"/>
    <circle cx="260" cy="90" r="4"/>
    <circle cx="270" cy="90" r="4"/>
    <circle cx="280" cy="90" r="4"/>

    <circle cx="210" cy="100" r="4"/>
    <circle cx="220" cy="100" r="4"/>
    <circle cx="270" cy="100" r="4"/>
    <circle cx="280" cy="100" r="4"/>

    <circle cx="210" cy="110" r="4"/>
    <circle cx="220" cy="110" r="4"/>
    <circle cx="270" cy="110" r="4"/>
    <circle cx="280" cy="110" r="4"/>

    <circle cx="220" cy="120" r="4"/>
    <circle cx="270" cy="120" r="4"/>

    <!-- I -->
    <circle cx="310" cy="10" r="4"/>
    <circle cx="320" cy="10" r="4"/>
    <circle cx="330" cy="10" r="4"/>
    <circle cx="340" cy="10" r="4"/>
    <circle cx="350" cy="10" r="4"/>
    <circle cx="360" cy="10" r="4"/>
    <circle cx="370" cy="10" r="4"/>
    <circle cx="380" cy="10" r="4"/>

    <circle cx="320" cy="20" r="4"/>
    <circle cx="330" cy="20" r="4"/>
    <circle cx="340" cy="20" r="4"/>
    <circle cx="350" cy="20" r="4"/>
    <circle cx="360" cy="20" r="4"/>
    <circle cx="370" cy="20" r="4"/>

    <circle cx="340" cy="30" r="4"/>
    <circle cx="350" cy="30" r="4"/>

    <circle cx="340" cy="40" r="4"/>
    <circle cx="350" cy="40" r="4"/>

    <circle cx="340" cy="50" r="4"/>
    <circle cx="350" cy="50" r="4"/>

    <circle cx="340" cy="60" r="4"/>
    <circle cx="350" cy="60" r="4"/>

    <circle cx="340" cy="70" r="4"/>
    <circle cx="350" cy="70" r="4"/>

    <circle cx="340" cy="80" r="4"/>
    <circle cx="350" cy="80" r="4"/>

    <circle cx="340" cy="90" r="4"/>
    <circle cx="350" cy="90" r="4"/>

    <circle cx="340" cy="100" r="4"/>
    <circle cx="350" cy="100" r="4"/>

    <circle cx="320" cy="110" r="4"/>
    <circle cx="330" cy="110" r="4"/>
    <circle cx="340" cy="110" r="4"/>
    <circle cx="350" cy="110" r="4"/>
    <circle cx="360" cy="110" r="4"/>
    <circle cx="370" cy="110" r="4"/>

    <circle cx="310" cy="120" r="4"/>
    <circle cx="320" cy="120" r="4"/>
    <circle cx="330" cy="120" r="4"/>
    <circle cx="340" cy="120" r="4"/>
    <circle cx="350" cy="120" r="4"/>
    <circle cx="360" cy="120" r="4"/>
    <circle cx="370" cy="120" r="4"/>
    <circle cx="380" cy="120" r="4"/>

    <!-- . -->
    <circle cx="440" cy="110" r="4"/>
    <circle cx="450" cy="110" r="4"/>
    <circle cx="440" cy="120" r="4"/>
    <circle cx="450" cy="120" r="4"/>
  </g>

  <g stroke-width="0" stroke="#E0D699" fill="#E0D699">
    <!-- N -->
    <circle cx="520" cy="10" r="4" fill="#B4E3B5"/>
    <circle cx="570" cy="10" r="4" fill="#B4E3B5"/>

    <circle cx="510" cy="20" r="4" fill="#B4E3B5"/>
    <circle cx="520" cy="20" r="4" fill="#B4E3B5"/>
    <circle cx="570" cy="20" r="4" fill="#B4E3B5"/>
    <circle cx="580" cy="20" r="4" fill="#B4E3B5"/>

    <circle cx="510" cy="30" r="4" fill="#B4E3B5"/>
    <circle cx="520" cy="30" r="4" fill="#B4E3B5"/>
    <circle cx="570" cy="30" r="4" fill="#B4E3B5"/>
    <circle cx="580" cy="30" r="4" fill="#B4E3B5"/>

    <circle cx="510" cy="40" r="4" fill="#B4E3B5"/>
    <circle cx="520" cy="40" r="4" fill="#B4E3B5"/>
    <circle cx="530" cy="40" r="4" fill="#B4E3B5"/>
    <circle cx="570" cy="40" r="4" fill="#B4E3B5"/>
    <circle cx="580" cy="40" r="4" fill="#B4E3B5"/>

    <circle cx="510" cy="50" r="4" fill="#94E6E5"/>
    <circle cx="520" cy="50" r="4" fill="#B4E3B5"/>
    <circle cx="530" cy="50" r="4" fill="#B4E3B5"/>
    <circle cx="540" cy="50" r="4" fill="#B4E3B5"/>
    <circle cx="570" cy="50" r="4" fill="#B4E3B5"/>
    <circle cx="580" cy="50" r="4" fill="#B4E3B5"/>

    <circle cx="510" cy="60" r="4" fill="#94E6E5"/>
    <circle cx="520" cy="60" r="4" fill="#94E6E5"/>
    <circle cx="530" cy="60" r="4" fill="#B4E3B5"/>
    <circle cx="540" cy="60" r="4" fill="#B4E3B5"/>
    <circle cx="550" cy="60" r="4" fill="#B4E3B5"/>
    <circle cx="570" cy="60" r="4" fill="#B4E3B5"/>
    <circle cx="580" cy="60" r="4" fill="#B4E3B5"/>

    <circle cx="510" cy="70" r="4" fill="#94E6E5"/>
    <circle cx="520" cy="70" r="4" fill="#94E6E5"/>
    <circle cx="540" cy="70" r="4" fill="#B4E3B5"/>
    <circle cx="550" cy="70" r="4" fill="#B4E3B5"/>
    <circle cx="560" cy="70" r="4" fill="#B4E3B5"/>
    <circle cx="570" cy="70" r="4" fill="#B4E3B5"/>
    <circle cx="580" cy="70" r="4" fill="#B4E3B5"/>

    <circle cx="510" cy="80" r="4" fill="#94E6E5"/>
    <circle cx="520" cy="80" r="4" fill="#94E6E5"/>
    <circle cx="550" cy="80" r="4" fill="#B4E3B5"/>
    <circle cx="560" cy="80" r="4" fill="#B4E3B5"/>
    <circle cx="570" cy="80" r="4" fill="#B4E3B5"/>
    <circle cx="580" cy="80" r="4" fill="#B4E3B5"/>

    <circle cx="510" cy="90" r="4" fill="#94E6E5"/>
    <circle cx="520" cy="90" r="4" fill="#94E6E5"/>
    <circle cx="560" cy="90" r="4" fill="#B4E3B5"/>
    <circle cx="570" cy="90" r="4" fill="#B4E3B5"/>
    <circle cx="580" cy="90" r="4" fill="#B4E3B5"/>

    <circle cx="510" cy="100" r="4" fill="#94E6E5"/>
    <circle cx="520" cy="100" r="4" fill="#94E6E5"/>
    <circle cx="570" cy="100" r="4" fill="#B4E3B5"/>
    <circle cx="580" cy="100" r="4" fill="#B4E3B5"/>

    <circle cx="510" cy="110" r="4" fill="#94E6E5"/>
    <circle cx="520" cy="110" r="4" fill="#94E6E5"/>
    <circle cx="570" cy="110" r="4" fill="#B4E3B5"/>
    <circle cx="580" cy="110" r="4" fill="#B4E3B5"/>

    <circle cx="520" cy="120" r="4" fill="#94E6E5"/>
    <circle cx="570" cy="120" r="4" fill="#B4E3B5"/>

    <!-- V -->
    <circle cx="620" cy="10" r="4"/>
    <circle cx="670" cy="10" r="4"/>

    <circle cx="610" cy="20" r="4"/>
    <circle cx="620" cy="20" r="4"/>
    <circle cx="670" cy="20" r="4"/>
    <circle cx="680" cy="20" r="4"/>

    <circle cx="610" cy="30" r="4"/>
    <circle cx="620" cy="30" r="4"/>
    <circle cx="670" cy="30" r="4"/>
    <circle cx="680" cy="30" r="4"/>

    <circle cx="610" cy="40" r="4"/>
    <circle cx="620" cy="40" r="4"/>
    <circle cx="670" cy="40" r="4"/>
    <circle cx="680" cy="40" r="4"/>

    <circle cx="610" cy="50" r="4"/>
    <circle cx="620" cy="50" r="4"/>
    <circle cx="670" cy="50" r="4"/>
    <circle cx="680" cy="50" r="4"/>

    <circle cx="610" cy="60" r="4"/>
    <circle cx="620" cy="60" r="4"/>
    <circle cx="670" cy="60" r="4"/>
    <circle cx="680" cy="60" r="4"/>

    <circle cx="610" cy="70" r="4"/>
    <circle cx="620" cy="70" r="4"/>
    <circle cx="670" cy="70" r="4"/>
    <circle cx="680" cy="70" r="4"/>

    <circle cx="610" cy="80" r="4"/>
    <circle cx="620" cy="80" r="4"/>
    <circle cx="670" cy="80" r="4"/>
    <circle cx="680" cy="80" r="4"/>

    <circle cx="610" cy="90" r="4"/>
    <circle cx="620" cy="90" r="4"/>
    <circle cx="630" cy="90" r="4"/>
    <circle cx="660" cy="90" r="4"/>
    <circle cx="670" cy="90" r="4"/>
    <circle cx="680" cy="90" r="4"/>

    <circle cx="620" cy="100" r="4"/>
    <circle cx="630" cy="100" r="4"/>
    <circle cx="640" cy="100" r="4"/>
    <circle cx="650" cy="100" r="4"/>
    <circle cx="660" cy="100" r="4"/>
    <circle cx="670" cy="100" r="4"/>

    <circle cx="630" cy="110" r="4"/>
    <circle cx="640" cy="110" r="4"/>
    <circle cx="650" cy="110" r="4"/>
    <circle cx="660" cy="110" r="4"/>

    <circle cx="640" cy="120" r="4"/>
    <circle cx="650" cy="120" r="4"/>

    <!-- I -->
    <circle cx="710" cy="10" r="4"/>
    <circle cx="720" cy="10" r="4"/>
    <circle cx="730" cy="10" r="4"/>
    <circle cx="740" cy="10" r="4"/>
    <circle cx="750" cy="10" r="4"/>
    <circle cx="760" cy="10" r="4"/>
    <circle cx="770" cy="10" r="4"/>
    <circle cx="780" cy="10" r="4"/>

    <circle cx="720" cy="20" r="4"/>
    <circle cx="730" cy="20" r="4"/>
    <circle cx="740" cy="20" r="4"/>
    <circle cx="750" cy="20" r="4"/>
    <circle cx="760" cy="20" r="4"/>
    <circle cx="770" cy="20" r="4"/>

    <circle cx="740" cy="30" r="4"/>
    <circle cx="750" cy="30" r="4"/>

    <circle cx="740" cy="40" r="4"/>
    <circle cx="750" cy="40" r="4"/>

    <circle cx="740" cy="50" r="4"/>
    <circle cx="750" cy="50" r="4"/>

    <circle cx="740" cy="60" r="4"/>
    <circle cx="750" cy="60" r="4"/>

    <circle cx="740" cy="70" r="4"/>
    <circle cx="750" cy="70" r="4"/>

    <circle cx="740" cy="80" r="4"/>
    <circle cx="750" cy="80" r="4"/>

    <circle cx="740" cy="90" r="4"/>
    <circle cx="750" cy="90" r="4"/>

    <circle cx="740" cy="100" r="4"/>
    <circle cx="750" cy="100" r="4"/>

    <circle cx="720" cy="110" r="4"/>
    <circle cx="730" cy="110" r="4"/>
    <circle cx="740" cy="110" r="4"/>
    <circle cx="750" cy="110" r="4"/>
    <circle cx="760" cy="110" r="4"/>
    <circle cx="770" cy="110" r="4"/>

    <circle cx="710" cy="120" r="4"/>
    <circle cx="720" cy="120" r="4"/>
    <circle cx="730" cy="120" r="4"/>
    <circle cx="740" cy="120" r="4"/>
    <circle cx="750" cy="120" r="4"/>
    <circle cx="760" cy="120" r="4"/>
    <circle cx="770" cy="120" r="4"/>
    <circle cx="780" cy="120" r="4"/>

    <!-- M -->
    <circle cx="820" cy="10" r="4"/>
    <circle cx="870" cy="10" r="4"/>

    <circle cx="810" cy="20" r="4"/>
    <circle cx="820" cy="20" r="4"/>
    <circle cx="870" cy="20" r="4"/>
    <circle cx="880" cy="20" r="4"/>

    <circle cx="810" cy="30" r="4"/>
    <circle cx="820" cy="30" r="4"/>
    <circle cx="830" cy="30" r="4"/>
    <circle cx="860" cy="30" r="4"/>
    <circle cx="870" cy="30" r="4"/>
    <circle cx="880" cy="30" r="4"/>

    <circle cx="810" cy="40" r="4"/>
    <circle cx="820" cy="40" r="4"/>
    <circle cx="830" cy="40" r="4"/>
    <circle cx="840" cy="40" r="4"/>
    <circle cx="850" cy="40" r="4"/>
    <circle cx="860" cy="40" r="4"/>
    <circle cx="870" cy="40" r="4"/>
    <circle cx="880" cy="40" r="4"/>

    <circle cx="810" cy="50" r="4"/>
    <circle cx="820" cy="50" r="4"/>
    <circle cx="830" cy="50" r="4"/>
    <circle cx="840" cy="50" r="4"/>
    <circle cx="850" cy="50" r="4"/>
    <circle cx="860" cy="50" r="4"/>
    <circle cx="870" cy="50" r="4"/>
    <circle cx="880" cy="50" r="4"/>

    <circle cx="810" cy="60" r="4"/>
    <circle cx="820" cy="60" r="4"/>
    <circle cx="840" cy="60" r="4"/>
    <circle cx="850" cy="60" r="4"/>
    <circle cx="870" cy="60" r="4"/>
    <circle cx="880" cy="60" r="4"/>

    <circle cx="810" cy="70" r="4"/>
    <circle cx="820" cy="70" r="4"/>
    <circle cx="870" cy="70" r="4"/>
    <circle cx="880" cy="70" r="4"/>

    <circle cx="810" cy="80" r="4"/>
    <circle cx="820" cy="80" r="4"/>
    <circle cx="870" cy="80" r="4"/>
    <circle cx="880" cy="80" r="4"/>

    <circle cx="810" cy="90" r="4"/>
    <circle cx="820" cy="90" r="4"/>
    <circle cx="870" cy="90" r="4"/>
    <circle cx="880" cy="90" r="4"/>

    <circle cx="810" cy="100" r="4"/>
    <circle cx="820" cy="100" r="4"/>
    <circle cx="870" cy="100" r="4"/>
    <circle cx="880" cy="100" r="4"/>

    <circle cx="810" cy="110" r="4"/>
    <circle cx="820" cy="110" r="4"/>
    <circle cx="870" cy="110" r="4"/>
    <circle cx="880" cy="110" r="4"/>

    <circle cx="820" cy="120" r="4"/>
    <circle cx="870" cy="120" r="4"/>
  </g>
</svg>
